# xmcd CD database file
#
# Track frame offsets:
#	150
#	28468
#	47533
#	70380
#	95809
#	115800
#	153431
#	171357
#	202596
#	225294
#
# Disc length: 3399 seconds
#
# Revision: 0
# Processed by: cddbd v1.5PL3 Copyright (c) Steve Scherf et al.
# Submitted via: CDex 1.50
#
DISCID=7f0d450a
DTITLE=Sweet Papa Lowdown with Chris Barber - One Of Your Smiles
DYEAR=2003
DGENRE=Jazz
TTITLE0=Apex Blues
TTITLE1=Shake It 'n Break It
TTITLE2=Black Cat Hoot Owl Blues
TTITLE3=One of Your Smiles
TTITLE4=Make Me a Pallet on the Floor
TTITLE5='Til Times Get Better
TTITLE6=Mean Daddy Blues
TTITLE7=Buggy Whippin' Mama
TTITLE8=Diddy Wa Diddy
TTITLE9=Why Cry Blues
EXTD=YEAR: 2003
EXTT0=
EXTT1=
EXTT2=
EXTT3=
EXTT4=
EXTT5=
EXTT6=
EXTT7=
EXTT8=
EXTT9=
PLAYORDER=
